<svg xmlns="http://www.w3.org/2000/svg" version="1.1" xmlns:xlink="http://www.w3.org/1999/xlink"  x="0" y="0" viewBox="0 0 24 24" style="enable-background:new 0 0 512 512" xml:space="preserve" class=""><g><g fill="#000" fill-rule="evenodd"><path d="M5 9h14c.556 0 1-.441 1-1.005v-.99C20 6.45 19.554 6 19 6H5c-.556 0-1 .441-1 1.005v.99C4 8.55 4.446 9 5 9zm0-2h14v1H5z" fill="#000000" opacity="1" data-original="#651111" class=""></path><path d="M16.602 22.454a.635.635 0 0 1-.597.546h-8.01a.629.629 0 0 1-.597-.546L5.998 8.45a.5.5 0 0 0-.996.1l1.4 14.004C6.484 23.357 7.19 24 7.996 24h8.01c.8 0 1.512-.644 1.592-1.446l1.4-14.004a.5.5 0 1 0-.995-.1zM12 0a7 7 0 0 0-6.98 6.462.5.5 0 0 0 .998.076 6 6 0 0 1 11.964 0 .5.5 0 0 0 .998-.076A7 7 0 0 0 12 0z" fill="#000000" opacity="1" data-original="#000000"  class=""></path></g></g></svg>